<svg xmlns="http://www.w3.org/2000/svg" viewBox="0 0 375 375">
<defs xmlns="http://www.w3.org/2000/svg"><g /><clipPath id="8e6d22af53"><path d="M 137.679688 116.277344 L 271.929688 116.277344 L 271.929688 246.777344 L 137.679688 246.777344 Z M 137.679688 116.277344 " clip-rule="nonzero" /></clipPath><clipPath id="60b51f264a"><path d="M 0.679688 0.277344 L 134.671875 0.277344 L 134.671875 130.777344 L 0.679688 130.777344 Z M 0.679688 0.277344 " clip-rule="nonzero" /></clipPath><clipPath id="c751c5b2e1"><rect x="0" width="135" y="0" height="131" /></clipPath><clipPath id="aa0783ed18"><path d="M 117 136 L 276 136 L 276 246.515625 L 117 246.515625 Z M 117 136 " clip-rule="nonzero" /></clipPath><clipPath id="2c9135829d"><rect x="0" width="118" y="0" height="17" /></clipPath><clipPath id="e4002c085b"><path d="M 253 69 L 320 69 L 320 95 L 253 95 Z M 253 69 " clip-rule="nonzero" /></clipPath><clipPath id="d0dd0ce502"><path d="M 257.09375 61.015625 L 322.226562 83.792969 L 315.046875 104.324219 L 249.914062 81.546875 Z M 257.09375 61.015625 " clip-rule="nonzero" /></clipPath><clipPath id="db6cb9ce9c"><path d="M 257.09375 61.015625 L 322.226562 83.792969 L 315.046875 104.324219 L 249.914062 81.546875 Z M 257.09375 61.015625 " clip-rule="nonzero" /></clipPath><clipPath id="9817771172"><path d="M 256 64 L 285 64 L 285 88 L 256 88 Z M 256 64 " clip-rule="nonzero" /></clipPath><clipPath id="53b87af469"><path d="M 257.09375 61.015625 L 322.226562 83.792969 L 315.046875 104.324219 L 249.914062 81.546875 Z M 257.09375 61.015625 " clip-rule="nonzero" /></clipPath><clipPath id="09cf733942"><path d="M 257.09375 61.015625 L 322.226562 83.792969 L 315.046875 104.324219 L 249.914062 81.546875 Z M 257.09375 61.015625 " clip-rule="nonzero" /></clipPath><clipPath id="6624f956a2"><path d="M 284 79 L 319 79 L 319 90 L 284 90 Z M 284 79 " clip-rule="nonzero" /></clipPath><clipPath id="fa884989c1"><path d="M 257.09375 61.015625 L 322.226562 83.792969 L 315.046875 104.324219 L 249.914062 81.546875 Z M 257.09375 61.015625 " clip-rule="nonzero" /></clipPath><clipPath id="a1c05d20a6"><path d="M 257.09375 61.015625 L 322.226562 83.792969 L 315.046875 104.324219 L 249.914062 81.546875 Z M 257.09375 61.015625 " clip-rule="nonzero" /></clipPath></defs>
<g id="body">
<g xmlns="http://www.w3.org/2000/svg" clip-path="url(#8e6d22af53)"><g transform="matrix(1, 0, 0, 1, 137, 116)"><g clip-path="url(#c751c5b2e1)"><g clip-path="url(#60b51f264a)"><path fill="#ffb938" d="M 57.128906 111.296875 Z M 57.128906 111.257812 C 50.886719 105.21875 39.335938 107.59375 31.203125 119.386719 C 29.109375 122.367188 27.257812 125.988281 25.769531 130.257812 L 13.613281 129.894531 L 7.171875 129.691406 C 7.9375 123.453125 8.421875 118.101562 8.621094 113.550781 C 8.824219 109.164062 8.785156 105.582031 8.460938 102.722656 C 8.21875 100.507812 7.816406 98.777344 7.253906 97.492188 C 6.046875 99.34375 3.871094 100.226562 0.691406 100.226562 C 3.871094 95.519531 5.601562 91.53125 5.84375 88.273438 L 6.125 86.945312 C 6.449219 85.253906 6.851562 83.601562 7.292969 82.03125 C 9.023438 75.996094 11.519531 70.679688 14.820312 66.171875 L 15.101562 65.8125 C 16.230469 64.242188 17.476562 62.792969 18.804688 61.421875 C 22.992188 57.15625 28.105469 53.734375 34.144531 51.199219 C 37.324219 49.871094 40.785156 48.785156 44.488281 47.9375 C 46.339844 47.535156 48.230469 47.171875 50.203125 46.890625 C 51.332031 49.429688 52.539062 51.683594 53.785156 53.65625 C 55.960938 57.074219 58.335938 59.691406 60.871094 61.542969 C 61.113281 61.746094 61.394531 61.90625 61.636719 62.066406 C 63.285156 63.152344 64.976562 63.878906 66.789062 64.320312 C 68.882812 64.84375 71.054688 64.925781 73.351562 64.601562 C 71.015625 63.71875 68.921875 62.75 67.03125 61.707031 C 60.789062 58.363281 56.847656 54.175781 55.074219 49.1875 L 55.074219 49.144531 C 54.429688 47.292969 54.109375 45.402344 54.070312 43.347656 C 54.070312 42.945312 54.070312 42.542969 54.070312 42.101562 C 54.269531 39.242188 57.570312 37.070312 64.089844 35.621094 C 66.667969 35.015625 69.808594 34.574219 73.429688 34.210938 C 76.128906 32.117188 78.945312 30.46875 81.882812 29.179688 C 83.253906 28.578125 84.660156 28.054688 86.109375 27.652344 C 87.640625 27.167969 89.167969 26.886719 90.699219 26.804688 C 96.375 26.484375 101.96875 28.9375 107.484375 34.132812 C 110.101562 37.070312 112.515625 38.882812 114.769531 39.566406 C 116.300781 40.046875 117.75 39.96875 119.078125 39.40625 C 120.609375 38.035156 121.492188 36.34375 121.734375 34.292969 C 121.816406 33.808594 121.816406 33.285156 121.816406 32.761719 C 121.773438 31.191406 121.414062 29.460938 120.726562 27.570312 C 120.488281 26.84375 120.246094 26.203125 120.003906 25.515625 C 118.996094 22.378906 118.3125 19.4375 118.070312 16.78125 C 117.832031 14.285156 117.949219 11.992188 118.394531 9.9375 C 118.996094 7.242188 120.164062 4.90625 121.9375 2.933594 C 122.21875 2.613281 122.5 2.332031 122.78125 2.050781 C 124.230469 0.277344 125.15625 0.519531 125.597656 2.773438 C 125.398438 3.820312 126 4.140625 127.410156 3.78125 C 129.183594 3.457031 129.585938 4.140625 128.578125 5.832031 C 127.894531 6.558594 127.371094 7.324219 126.925781 8.046875 C 126.082031 9.496094 125.71875 10.945312 125.761719 12.433594 C 125.839844 13.84375 126.324219 15.292969 127.289062 16.742188 C 128.898438 19.558594 130.226562 22.214844 131.273438 24.753906 C 132 26.523438 132.601562 28.214844 133.085938 29.824219 C 134.214844 33.6875 134.65625 37.152344 134.335938 40.25 L 134.292969 40.691406 C 134.011719 42.824219 133.367188 44.796875 132.402344 46.53125 C 131.636719 48.261719 130.589844 49.949219 129.261719 51.601562 C 127.089844 54.378906 124.109375 57.035156 120.324219 59.652344 C 117.546875 61.585938 114.367188 63.4375 110.785156 65.289062 C 110.101562 65.609375 109.375 65.972656 108.691406 66.335938 C 103.015625 68.992188 98.144531 72.414062 94.082031 76.597656 C 89.570312 81.148438 86.070312 86.621094 83.535156 92.980469 C 81.601562 97.851562 80.234375 103.246094 79.429688 109.125 C 79.265625 110.210938 79.148438 111.296875 79.027344 112.425781 L 78.945312 130.015625 L 78.945312 130.578125 L 60.832031 130.578125 L 60.910156 129.734375 C 61.675781 125.585938 61.675781 122.003906 61.074219 118.984375 C 60.386719 115.683594 58.980469 113.109375 57.128906 111.296875 Z M 57.128906 111.257812 " fill-opacity="1" fill-rule="evenodd" /></g></g></g></g>
</g>
<g id="contour">
<g xmlns="http://www.w3.org/2000/svg" clip-path="url(#aa0783ed18)"><path fill="#294a91" d="M 270.347656 209.660156 C 268.308594 208.46875 265.402344 208.351562 264.265625 206.042969 C 262.894531 203.261719 260.476562 204.480469 259.011719 206.53125 C 257.476562 208.6875 257.042969 211.441406 257.703125 213.976562 C 257.957031 214.960938 259.355469 215.132812 259.859375 214.257812 C 260.78125 212.660156 263.074219 212.585938 264.5 213.542969 C 266.484375 214.878906 266.910156 217.667969 266.792969 219.878906 C 266.683594 221.929688 266.015625 224.273438 264.320312 225.582031 C 262.34375 227.109375 259.582031 226.484375 257.738281 225.050781 C 255.71875 223.472656 254.609375 220.988281 253.804688 218.625 C 252.902344 215.960938 252.304688 213.210938 251.847656 210.445312 C 250.898438 204.679688 250.394531 198.832031 249.789062 193.019531 C 249.175781 187.1875 248.625 181.339844 248.082031 175.5 C 247.59375 170.300781 246.910156 165.144531 244.722656 160.355469 C 240.960938 152.078125 233.648438 145.769531 225.707031 141.632812 C 215.96875 136.5625 203.222656 133.953125 194.132812 141.742188 C 191.816406 141.382812 189.378906 141.867188 187.066406 142.878906 C 181.644531 145.246094 177.886719 149.972656 176.066406 155.425781 C 169.359375 154.496094 161.351562 154.40625 155.628906 158.386719 C 150.902344 161.664062 146.199219 165.695312 143.996094 171.066406 C 141.75 170.652344 139.410156 171.183594 137.613281 172.636719 C 135.78125 174.117188 134.898438 176.355469 134.464844 178.613281 C 133.707031 182.503906 133.671875 189.914062 128.128906 189.550781 C 127.894531 187.980469 126.964844 186.554688 125.566406 185.734375 C 124.636719 185.191406 123.605469 185.03125 122.550781 185.046875 C 121.675781 185.058594 120.304688 185.335938 119.554688 184.714844 C 119.417969 184.523438 119.273438 184.34375 119.101562 184.171875 C 118.171875 183.242188 116.519531 184.453125 117.253906 185.597656 C 117.414062 185.859375 117.605469 186.085938 117.804688 186.277344 C 118.425781 187.179688 118.613281 188.34375 119.085938 189.328125 C 119.582031 190.375 120.394531 191.238281 121.394531 191.828125 C 123.328125 192.964844 125.773438 192.992188 127.703125 191.855469 C 129.886719 191.988281 132.054688 191.265625 133.589844 189.617188 C 135.152344 187.9375 135.773438 185.699219 136.117188 183.488281 C 136.46875 181.238281 136.550781 178.847656 137.453125 176.734375 C 138.464844 174.378906 140.765625 173.015625 143.246094 173.332031 C 143.230469 173.414062 143.203125 173.488281 143.183594 173.566406 C 142.300781 177.222656 141.777344 181.003906 141.261719 184.734375 C 140.746094 188.476562 140.402344 192.234375 140.359375 196.015625 C 140.277344 203.695312 141.207031 211.339844 141.984375 218.976562 C 142.851562 227.570312 143.507812 236.234375 142.363281 244.828125 C 142.28125 245.46875 142.976562 246 143.542969 246.007812 C 147.34375 246.082031 151.136719 246.144531 154.933594 246.214844 C 156.722656 246.253906 158.734375 246.550781 160.503906 246.296875 C 162.210938 246.054688 162.300781 244.511719 162.535156 243.101562 C 163.707031 236.082031 164.339844 228.976562 164.449219 221.855469 C 170.179688 222.894531 175.957031 223.867188 181.789062 224.011719 C 184.683594 224.085938 187.699219 224.03125 190.542969 223.460938 C 191.480469 223.273438 192.410156 222.964844 193.214844 222.488281 C 193.179688 225.601562 193.160156 228.707031 193.160156 231.820312 C 193.160156 233.824219 193.167969 235.835938 193.1875 237.839844 C 193.203125 239.699219 192.925781 241.855469 193.320312 243.671875 C 193.675781 245.269531 194.945312 245.539062 196.398438 245.566406 C 198.484375 245.601562 200.578125 245.621094 202.671875 245.640625 C 206.851562 245.691406 211.03125 245.738281 215.210938 245.792969 C 215.796875 245.792969 216.464844 245.242188 216.390625 244.609375 C 215.671875 238.265625 214.957031 231.902344 214.75 225.511719 C 214.640625 222.242188 214.675781 218.96875 214.910156 215.710938 C 215.121094 212.847656 215.363281 209.886719 216.3125 207.160156 C 217.175781 204.652344 218.957031 202.214844 221.644531 201.519531 C 224.34375 200.824219 226.753906 202.613281 228.6875 204.273438 C 232.828125 207.828125 235.824219 212.449219 238.730469 217.019531 C 243.957031 225.242188 250.417969 235.511719 261.023438 236.921875 C 266.089844 237.589844 270.71875 235.050781 273.265625 230.683594 C 275.828125 226.289062 276.1875 220.304688 274.644531 215.492188 C 273.894531 213.136719 272.535156 210.933594 270.359375 209.660156 Z M 121.773438 189.183594 C 121.304688 188.675781 121.007812 188.082031 120.753906 187.449219 C 121.015625 187.46875 121.277344 187.46875 121.539062 187.457031 C 122.660156 187.429688 123.75 187.277344 124.691406 188.019531 C 125.382812 188.570312 125.738281 189.308594 125.800781 190.140625 C 124.417969 190.609375 122.804688 190.273438 121.765625 189.183594 Z M 267.820312 233.164062 C 263.308594 236.152344 257.722656 234.195312 253.652344 231.378906 C 245.4375 225.710938 241.511719 215.925781 235.582031 208.253906 C 234.101562 206.332031 232.496094 204.5 230.671875 202.890625 C 228.902344 201.332031 226.878906 199.707031 224.523438 199.183594 C 219.894531 198.164062 215.976562 201.675781 214.34375 205.707031 C 213.222656 208.460938 212.917969 211.496094 212.65625 214.425781 C 212.359375 217.765625 212.285156 221.132812 212.359375 224.480469 C 212.503906 230.820312 213.179688 237.128906 213.890625 243.417969 C 210.671875 243.382812 207.457031 243.335938 204.234375 243.300781 C 202.402344 243.285156 200.578125 243.257812 198.746094 243.238281 C 197.925781 243.230469 196.941406 243.347656 196.136719 243.203125 C 195.570312 243.101562 195.769531 243.328125 195.597656 242.8125 C 195.480469 242.433594 195.578125 241.640625 195.578125 241.242188 C 195.488281 233.914062 195.507812 226.585938 195.605469 219.257812 C 195.625 217.957031 193.910156 217.777344 193.394531 218.695312 C 193.296875 218.8125 193.214844 218.957031 193.160156 219.128906 C 192.546875 221.132812 189.558594 221.296875 187.84375 221.457031 C 185.152344 221.710938 182.445312 221.71875 179.757812 221.574219 C 174.257812 221.269531 168.84375 220.277344 163.4375 219.292969 C 162.300781 219.085938 161.660156 220.375 162.101562 221.117188 C 162.066406 224.960938 161.875 228.796875 161.53125 232.625 C 161.351562 234.5625 161.136719 236.503906 160.875 238.425781 C 160.738281 239.449219 160.585938 240.457031 160.421875 241.476562 C 160.316406 242.171875 160.296875 243.246094 160.015625 244.003906 C 158.941406 244.203125 157.480469 243.933594 156.488281 243.914062 C 155.015625 243.886719 153.554688 243.859375 152.082031 243.832031 L 144.863281 243.699219 C 146.476562 229.609375 143.425781 215.59375 142.8125 201.53125 C 142.496094 194.246094 143.164062 187.105469 144.382812 179.929688 C 144.953125 176.589844 145.332031 172.988281 147.039062 170.003906 C 148.609375 167.25 151.046875 165.136719 153.445312 163.132812 C 156.46875 160.605469 159.320312 158.566406 163.285156 157.871094 C 167.253906 157.175781 171.425781 157.203125 175.425781 157.734375 C 175.152344 158.925781 174.964844 160.144531 174.875 161.375 C 174.324219 168.613281 176.550781 177.972656 183.367188 181.800781 C 189.875 185.464844 199.621094 182.574219 202.617188 175.582031 C 204.171875 171.960938 203.023438 167.726562 199.488281 165.769531 C 195.921875 163.792969 191.472656 165.226562 189.460938 168.695312 C 188.691406 170.011719 190.730469 171.203125 191.5 169.886719 C 192.96875 167.339844 196.28125 166.363281 198.773438 168.089844 C 201.410156 169.910156 201.453125 173.207031 199.875 175.75 C 196.625 181.003906 188.609375 182.710938 183.574219 179.128906 C 178.511719 175.527344 176.949219 168.117188 177.183594 162.285156 C 177.4375 155.941406 180.378906 149.683594 185.839844 146.21875 C 188.882812 144.289062 193.023438 142.925781 196.320312 145.007812 C 199.441406 146.988281 201.824219 150.460938 203.234375 153.820312 C 203.808594 155.199219 206.09375 154.59375 205.507812 153.1875 C 203.945312 149.46875 201.570312 146.003906 198.324219 143.546875 C 197.835938 143.175781 197.339844 142.871094 196.824219 142.617188 C 205.769531 136.027344 218.226562 139.875 226.980469 145.054688 C 235.699219 150.207031 242.710938 158.035156 244.75 168.160156 C 245.980469 174.261719 246.175781 180.625 246.800781 186.808594 C 247.433594 193.164062 248.082031 199.515625 248.847656 205.851562 C 249.527344 211.457031 250.3125 217.371094 252.847656 222.488281 C 254.886719 226.601562 259.582031 230.375 264.375 228.28125 C 269.050781 226.242188 270.152344 219.445312 268.480469 215.113281 C 267.605469 212.839844 265.816406 211.035156 263.355469 210.664062 C 262.109375 210.472656 260.855469 210.664062 259.789062 211.207031 C 259.878906 209.597656 260.519531 207.984375 261.757812 206.964844 C 262.027344 206.738281 261.800781 206.683594 262.027344 206.800781 C 262.164062 206.871094 262.226562 207.234375 262.296875 207.378906 C 262.523438 207.8125 262.765625 208.21875 263.101562 208.578125 C 263.777344 209.320312 264.664062 209.804688 265.566406 210.195312 C 267.480469 211.023438 269.5 211.46875 270.863281 213.171875 C 272.28125 214.960938 272.847656 217.351562 273.046875 219.582031 C 273.472656 224.574219 272.261719 230.214844 267.832031 233.15625 Z M 267.820312 233.164062 " fill-opacity="1" fill-rule="nonzero" /></g>
</g>
<g id="eye">
<path xmlns="http://www.w3.org/2000/svg" fill="#294a91" d="M 224.949219 178.460938 L 224.722656 178.460938 C 224.398438 178.449219 224.089844 178.515625 223.8125 178.667969 C 223.523438 178.765625 223.269531 178.929688 223.054688 179.15625 C 222.828125 179.371094 222.65625 179.625 222.566406 179.914062 C 222.421875 180.191406 222.347656 180.5 222.359375 180.824219 C 222.386719 181.4375 222.585938 182.070312 223.054688 182.492188 C 223.515625 182.917969 224.082031 183.1875 224.722656 183.1875 L 224.949219 183.1875 C 225.273438 183.199219 225.582031 183.136719 225.859375 182.980469 C 226.148438 182.882812 226.402344 182.71875 226.617188 182.492188 C 226.84375 182.277344 227.015625 182.023438 227.105469 181.734375 C 227.25 181.457031 227.324219 181.148438 227.3125 180.824219 C 227.285156 180.210938 227.089844 179.578125 226.617188 179.15625 C 226.160156 178.730469 225.589844 178.460938 224.949219 178.460938 Z M 224.949219 178.460938 " fill-opacity="1" fill-rule="nonzero" />
</g>
<g id="book">
<g xmlns="http://www.w3.org/2000/svg" clip-path="url(#e4002c085b)"><g clip-path="url(#d0dd0ce502)"><g clip-path="url(#db6cb9ce9c)"><path fill="#294a91" d="M 253.488281 71.320312 L 254.292969 69.015625 C 261.066406 70.617188 276.507812 75.292969 282.074219 88.144531 C 282.484375 89.09375 282.832031 90.0625 283.117188 91.054688 C 284.285156 90.265625 285.507812 89.578125 286.789062 88.984375 C 299.722656 83 314.046875 89.132812 319.460938 91.804688 L 318.628906 94.179688 C 314.597656 92.042969 304.917969 87.667969 292.957031 89.605469 C 289.332031 90.199219 285.867188 91.289062 282.558594 92.878906 C 281.214844 90.265625 279.601562 87.828125 277.71875 85.570312 C 269.578125 75.828125 258.769531 72.519531 253.488281 71.320312 Z M 253.488281 71.320312 " fill-opacity="1" fill-rule="nonzero" /></g></g></g>
<g xmlns="http://www.w3.org/2000/svg" clip-path="url(#9817771172)"><g clip-path="url(#53b87af469)"><g clip-path="url(#09cf733942)"><path fill="#ffad15" d="M 256.851562 67.484375 L 267.316406 64.597656 C 269.335938 65.515625 271.207031 66.667969 272.933594 68.058594 C 277.972656 72.132812 280.253906 77.136719 281.75 80.515625 C 282.800781 82.898438 283.625 85.355469 284.222656 87.886719 C 281.984375 83.933594 276.910156 76.332031 267.433594 71.308594 C 264.085938 69.539062 260.558594 68.261719 256.851562 67.484375 Z M 256.851562 67.484375 " fill-opacity="1" fill-rule="nonzero" /></g></g></g>
<g xmlns="http://www.w3.org/2000/svg" clip-path="url(#6624f956a2)"><g clip-path="url(#fa884989c1)"><g clip-path="url(#a1c05d20a6)"><path fill="#ffad15" d="M 318.417969 89.015625 L 312.03125 80.234375 C 309.882812 79.691406 307.699219 79.425781 305.480469 79.441406 C 299 79.484375 294.097656 81.976562 290.824219 83.6875 C 288.515625 84.894531 286.339844 86.304688 284.296875 87.910156 C 288.511719 86.214844 297.214844 83.433594 307.757812 85.40625 C 311.480469 86.109375 315.03125 87.3125 318.417969 89.015625 Z M 318.417969 89.015625 " fill-opacity="1" fill-rule="nonzero" /></g></g></g>
</g>
<g id="wordmark">
<g xmlns="http://www.w3.org/2000/svg" fill="#294a91" fill-opacity="1"><g transform="translate(156.230795, 285.60751)"><g><path d="M 8.328125 -11.046875 L 8.390625 -11.15625 C 8.421875 -11.300781 8.441406 -11.484375 8.453125 -11.703125 C 8.460938 -11.921875 8.476562 -12.054688 8.5 -12.109375 C 8.351562 -12.179688 8.179688 -12.234375 7.984375 -12.265625 C 7.796875 -12.304688 7.617188 -12.328125 7.453125 -12.328125 C 7.210938 -12.328125 7.019531 -12.300781 6.875 -12.25 C 6.582031 -12.15625 6.4375 -11.945312 6.4375 -11.625 C 6.40625 -11.582031 6.414062 -11.5 6.46875 -11.375 C 6.519531 -11.25 6.675781 -11.128906 6.9375 -11.015625 L 7.734375 -10.75 C 7.804688 -10.75 7.90625 -10.75 8.03125 -10.75 C 8.15625 -10.75 8.238281 -10.738281 8.28125 -10.71875 C 8.28125 -10.769531 8.285156 -10.820312 8.296875 -10.875 C 8.316406 -10.9375 8.328125 -10.992188 8.328125 -11.046875 Z M 9.34375 -10.6875 L 9.375 -10.6875 C 9.5 -10.6875 9.671875 -10.703125 9.890625 -10.734375 C 10.109375 -10.773438 10.3125 -10.832031 10.5 -10.90625 C 10.40625 -10.945312 10.332031 -10.992188 10.28125 -11.046875 L 10.0625 -11.265625 C 10.019531 -11.335938 9.929688 -11.410156 9.796875 -11.484375 C 9.660156 -11.554688 9.566406 -11.601562 9.515625 -11.625 C 9.515625 -11.582031 9.503906 -11.476562 9.484375 -11.3125 C 9.460938 -11.15625 9.425781 -11.019531 9.375 -10.90625 C 9.351562 -10.851562 9.34375 -10.78125 9.34375 -10.6875 Z M 19.84375 -0.296875 C 19.425781 -0.296875 19.023438 -0.335938 18.640625 -0.421875 C 18.253906 -0.503906 17.878906 -0.675781 17.515625 -0.9375 C 17.078125 -1.28125 16.644531 -1.671875 16.21875 -2.109375 C 15.800781 -2.546875 15.421875 -3.019531 15.078125 -3.53125 L 14.28125 -4.828125 C 14.15625 -5.023438 13.957031 -5.347656 13.6875 -5.796875 C 13.425781 -6.242188 13.164062 -6.691406 12.90625 -7.140625 C 12.65625 -7.585938 12.460938 -7.910156 12.328125 -8.109375 C 12.273438 -8.148438 12.242188 -8.203125 12.234375 -8.265625 C 12.222656 -8.328125 12.191406 -8.382812 12.140625 -8.4375 C 12.117188 -8.550781 12.046875 -8.679688 11.921875 -8.828125 C 11.847656 -8.878906 11.796875 -8.925781 11.765625 -8.96875 C 11.742188 -9.019531 11.710938 -9.070312 11.671875 -9.125 C 11.640625 -9.164062 11.613281 -9.21875 11.59375 -9.28125 C 11.570312 -9.34375 11.523438 -9.410156 11.453125 -9.484375 C 11.421875 -9.535156 11.398438 -9.566406 11.390625 -9.578125 C 11.378906 -9.585938 11.363281 -9.617188 11.34375 -9.671875 C 11.3125 -9.742188 11.25 -9.828125 11.15625 -9.921875 C 10.882812 -9.828125 10.644531 -9.75 10.4375 -9.6875 C 10.238281 -9.625 9.945312 -9.582031 9.5625 -9.5625 C 9.507812 -9.5625 9.445312 -9.546875 9.375 -9.515625 C 9.300781 -9.492188 9.253906 -9.484375 9.234375 -9.484375 C 9.203125 -9.410156 9.175781 -9.316406 9.15625 -9.203125 C 9.132812 -9.097656 9.113281 -8.988281 9.09375 -8.875 L 9.015625 -8.359375 C 8.992188 -8.117188 8.953125 -7.867188 8.890625 -7.609375 C 8.828125 -7.359375 8.75 -7.097656 8.65625 -6.828125 C 8.601562 -6.679688 8.554688 -6.535156 8.515625 -6.390625 C 8.484375 -6.242188 8.441406 -6.097656 8.390625 -5.953125 C 8.390625 -5.910156 8.378906 -5.851562 8.359375 -5.78125 C 8.335938 -5.707031 8.3125 -5.644531 8.28125 -5.59375 C 8.132812 -5.007812 7.945312 -4.453125 7.71875 -3.921875 C 7.488281 -3.390625 7.226562 -2.859375 6.9375 -2.328125 C 6.625 -1.722656 6.082031 -1.164062 5.3125 -0.65625 C 4.675781 -0.238281 4.117188 -0.03125 3.640625 -0.03125 L 3.59375 -0.03125 C 2.625 -0.0625 1.8125 -0.328125 1.15625 -0.828125 C 0.601562 -1.296875 0.226562 -1.941406 0.03125 -2.765625 C -0.0390625 -3.078125 -0.0625 -3.40625 -0.03125 -3.75 C 0.0078125 -4.132812 0.0625 -4.488281 0.125 -4.8125 C 0.1875 -5.144531 0.316406 -5.46875 0.515625 -5.78125 L 0.515625 -5.890625 C 0.554688 -5.984375 0.613281 -6.078125 0.6875 -6.171875 C 0.757812 -6.273438 0.84375 -6.375 0.9375 -6.46875 C 0.988281 -6.519531 1.046875 -6.566406 1.109375 -6.609375 C 1.171875 -6.660156 1.25 -6.6875 1.34375 -6.6875 C 1.4375 -6.664062 1.507812 -6.640625 1.5625 -6.609375 C 1.613281 -6.585938 1.675781 -6.566406 1.75 -6.546875 C 1.820312 -6.515625 1.878906 -6.40625 1.921875 -6.21875 C 1.921875 -6.144531 1.898438 -6.035156 1.859375 -5.890625 L 1.859375 -5.84375 C 1.734375 -5.65625 1.660156 -5.5 1.640625 -5.375 L 1.53125 -5.15625 C 1.476562 -4.988281 1.425781 -4.832031 1.375 -4.6875 C 1.332031 -4.539062 1.296875 -4.394531 1.265625 -4.25 L 1.234375 -4.140625 C 1.109375 -3.628906 1.132812 -3.109375 1.3125 -2.578125 C 1.425781 -2.242188 1.632812 -1.941406 1.9375 -1.671875 C 2.25 -1.398438 2.582031 -1.253906 2.9375 -1.234375 L 3.203125 -1.234375 C 3.992188 -1.234375 4.753906 -1.632812 5.484375 -2.4375 C 6.265625 -3.28125 6.847656 -4.476562 7.234375 -6.03125 C 7.285156 -6.15625 7.320312 -6.273438 7.34375 -6.390625 C 7.363281 -6.515625 7.398438 -6.640625 7.453125 -6.765625 C 7.523438 -6.953125 7.578125 -7.128906 7.609375 -7.296875 C 7.648438 -7.472656 7.691406 -7.65625 7.734375 -7.84375 C 7.804688 -8.039062 7.851562 -8.226562 7.875 -8.40625 C 7.90625 -8.59375 7.945312 -8.769531 8 -8.9375 C 8 -9.007812 8.003906 -9.078125 8.015625 -9.140625 C 8.023438 -9.203125 8.03125 -9.269531 8.03125 -9.34375 C 8.03125 -9.382812 8.035156 -9.429688 8.046875 -9.484375 C 8.054688 -9.535156 8.0625 -9.570312 8.0625 -9.59375 L 7.515625 -9.671875 L 7.421875 -9.671875 C 7.273438 -9.691406 7.109375 -9.734375 6.921875 -9.796875 C 6.742188 -9.859375 6.59375 -9.910156 6.46875 -9.953125 C 6.269531 -10.054688 6.101562 -10.144531 5.96875 -10.21875 C 5.84375 -10.289062 5.695312 -10.421875 5.53125 -10.609375 C 5.207031 -11.023438 5.097656 -11.425781 5.203125 -11.8125 C 5.242188 -12.25 5.472656 -12.671875 5.890625 -13.078125 C 6.078125 -13.222656 6.285156 -13.335938 6.515625 -13.421875 C 6.753906 -13.515625 7.03125 -13.5625 7.34375 -13.5625 C 7.65625 -13.5625 7.957031 -13.507812 8.25 -13.40625 L 8.28125 -13.40625 C 8.382812 -13.382812 8.457031 -13.367188 8.5 -13.359375 C 8.550781 -13.347656 8.578125 -13.34375 8.578125 -13.34375 C 8.578125 -13.382812 8.585938 -13.421875 8.609375 -13.453125 C 8.640625 -13.492188 8.65625 -13.550781 8.65625 -13.625 L 8.65625 -13.671875 C 8.65625 -13.910156 8.664062 -14.066406 8.6875 -14.140625 C 8.707031 -14.378906 8.722656 -14.609375 8.734375 -14.828125 C 8.753906 -15.046875 8.765625 -15.273438 8.765625 -15.515625 C 8.734375 -15.640625 8.722656 -15.773438 8.734375 -15.921875 C 8.753906 -16.066406 8.765625 -16.195312 8.765625 -16.3125 C 8.765625 -16.601562 8.765625 -16.894531 8.765625 -17.1875 C 8.765625 -17.476562 8.738281 -17.78125 8.6875 -18.09375 C 8.664062 -18.195312 8.65625 -18.296875 8.65625 -18.390625 C 8.65625 -18.484375 8.628906 -18.582031 8.578125 -18.6875 C 8.523438 -18.945312 8.476562 -19.21875 8.4375 -19.5 C 8.40625 -19.78125 8.332031 -20.039062 8.21875 -20.28125 C 7.875 -20.863281 7.28125 -21.25 6.4375 -21.4375 C 6.332031 -21.488281 6.203125 -21.519531 6.046875 -21.53125 C 5.890625 -21.539062 5.753906 -21.535156 5.640625 -21.515625 C 5.273438 -21.441406 4.960938 -21.351562 4.703125 -21.25 C 4.453125 -21.15625 4.15625 -20.953125 3.8125 -20.640625 C 3.71875 -20.566406 3.628906 -20.492188 3.546875 -20.421875 C 3.460938 -20.347656 3.394531 -20.253906 3.34375 -20.140625 L 3.234375 -20.0625 C 3.085938 -19.863281 2.972656 -19.695312 2.890625 -19.5625 C 2.804688 -19.4375 2.710938 -19.238281 2.609375 -18.96875 C 2.566406 -18.75 2.523438 -18.546875 2.484375 -18.359375 C 2.453125 -18.179688 2.4375 -18 2.4375 -17.8125 C 2.4375 -17.320312 2.554688 -16.921875 2.796875 -16.609375 C 3.015625 -16.242188 3.332031 -16.0625 3.75 -16.0625 C 3.96875 -16.0625 4.160156 -16.125 4.328125 -16.25 C 4.566406 -16.34375 4.75 -16.535156 4.875 -16.828125 C 4.875 -16.847656 4.882812 -16.859375 4.90625 -16.859375 C 4.90625 -16.859375 4.914062 -16.875 4.9375 -16.90625 C 4.988281 -17.019531 5.054688 -17.132812 5.140625 -17.25 C 5.222656 -17.375 5.351562 -17.4375 5.53125 -17.4375 C 5.644531 -17.46875 5.734375 -17.460938 5.796875 -17.421875 C 5.859375 -17.390625 5.925781 -17.347656 6 -17.296875 C 6.070312 -17.179688 6.085938 -17.023438 6.046875 -16.828125 C 6.015625 -16.628906 5.960938 -16.445312 5.890625 -16.28125 C 5.765625 -16.007812 5.554688 -15.753906 5.265625 -15.515625 C 4.972656 -15.273438 4.695312 -15.109375 4.4375 -15.015625 L 4.390625 -15.015625 C 4.316406 -14.984375 4.257812 -14.960938 4.21875 -14.953125 C 4.1875 -14.941406 4.171875 -14.9375 4.171875 -14.9375 L 3.96875 -14.9375 C 3.863281 -14.9375 3.773438 -14.929688 3.703125 -14.921875 C 3.628906 -14.910156 3.554688 -14.90625 3.484375 -14.90625 C 3.148438 -14.90625 2.859375 -14.988281 2.609375 -15.15625 C 2.472656 -15.25 2.296875 -15.398438 2.078125 -15.609375 C 1.859375 -15.816406 1.6875 -16.050781 1.5625 -16.3125 C 1.363281 -16.820312 1.265625 -17.285156 1.265625 -17.703125 C 1.171875 -17.960938 1.171875 -18.179688 1.265625 -18.359375 L 1.421875 -19.15625 C 1.460938 -19.414062 1.535156 -19.625 1.640625 -19.78125 C 1.753906 -19.945312 1.875 -20.125 2 -20.3125 L 2.078125 -20.390625 C 2.191406 -20.578125 2.304688 -20.75 2.421875 -20.90625 C 2.546875 -21.070312 2.695312 -21.25 2.875 -21.4375 C 3.164062 -21.726562 3.539062 -21.960938 4 -22.140625 C 4.09375 -22.179688 4.1875 -22.21875 4.28125 -22.25 C 4.382812 -22.289062 4.484375 -22.335938 4.578125 -22.390625 L 5.015625 -22.5 C 5.015625 -22.519531 5.023438 -22.53125 5.046875 -22.53125 C 5.222656 -22.507812 5.390625 -22.503906 5.546875 -22.515625 C 5.703125 -22.523438 5.863281 -22.554688 6.03125 -22.609375 L 6.390625 -22.609375 C 6.585938 -22.554688 6.769531 -22.507812 6.9375 -22.46875 C 7.113281 -22.4375 7.296875 -22.363281 7.484375 -22.25 C 7.722656 -22.125 7.941406 -21.992188 8.140625 -21.859375 C 8.335938 -21.722656 8.492188 -21.582031 8.609375 -21.4375 C 8.785156 -21.25 8.941406 -21.046875 9.078125 -20.828125 C 9.222656 -20.609375 9.320312 -20.414062 9.375 -20.25 C 9.5 -19.832031 9.578125 -19.488281 9.609375 -19.21875 C 9.648438 -18.957031 9.691406 -18.679688 9.734375 -18.390625 C 9.765625 -18.265625 9.785156 -18.140625 9.796875 -18.015625 C 9.804688 -17.898438 9.8125 -17.769531 9.8125 -17.625 C 9.863281 -17.382812 9.878906 -17.140625 9.859375 -16.890625 C 9.847656 -16.648438 9.84375 -16.4375 9.84375 -16.25 C 9.820312 -16.125 9.816406 -16 9.828125 -15.875 C 9.835938 -15.757812 9.84375 -15.640625 9.84375 -15.515625 C 9.875 -15.398438 9.890625 -15.269531 9.890625 -15.125 C 9.890625 -14.976562 9.890625 -14.84375 9.890625 -14.71875 C 9.859375 -14.664062 9.84375 -14.507812 9.84375 -14.25 C 9.820312 -14.050781 9.796875 -13.84375 9.765625 -13.625 C 9.742188 -13.40625 9.710938 -13.210938 9.671875 -13.046875 C 9.691406 -13.023438 9.726562 -13.015625 9.78125 -13.015625 C 9.800781 -12.960938 9.847656 -12.914062 9.921875 -12.875 C 9.992188 -12.84375 10.054688 -12.800781 10.109375 -12.75 C 10.203125 -12.65625 10.285156 -12.597656 10.359375 -12.578125 L 10.65625 -12.28125 L 10.859375 -12.109375 L 10.96875 -12.03125 L 11.484375 -11.515625 C 11.578125 -11.566406 11.707031 -11.664062 11.875 -11.8125 C 12.050781 -11.957031 12.175781 -12.066406 12.25 -12.140625 C 12.582031 -12.398438 12.875 -12.691406 13.125 -13.015625 C 13.195312 -13.085938 13.257812 -13.160156 13.3125 -13.234375 C 13.375 -13.304688 13.441406 -13.363281 13.515625 -13.40625 C 13.785156 -13.675781 14.039062 -13.96875 14.28125 -14.28125 C 14.351562 -14.40625 14.429688 -14.507812 14.515625 -14.59375 C 14.597656 -14.675781 14.675781 -14.765625 14.75 -14.859375 L 15.34375 -15.484375 L 15.703125 -15.875 C 16.035156 -16.21875 16.328125 -16.550781 16.578125 -16.875 C 16.835938 -17.207031 17.125 -17.554688 17.4375 -17.921875 L 17.8125 -18.390625 C 18.175781 -18.828125 18.519531 -19.238281 18.84375 -19.625 C 19.164062 -20.007812 19.507812 -20.382812 19.875 -20.75 L 19.953125 -20.859375 C 20.222656 -21.128906 20.515625 -21.390625 20.828125 -21.640625 C 21.140625 -21.898438 21.46875 -22.125 21.8125 -22.3125 C 21.851562 -22.332031 21.925781 -22.34375 22.03125 -22.34375 C 22.238281 -22.34375 22.394531 -22.222656 22.5 -21.984375 C 22.539062 -21.796875 22.507812 -21.644531 22.40625 -21.53125 C 22.300781 -21.425781 22.1875 -21.3125 22.0625 -21.1875 L 22.03125 -21.15625 C 21.832031 -21.007812 21.65625 -20.859375 21.5 -20.703125 C 21.34375 -20.546875 21.175781 -20.394531 21 -20.25 C 20.519531 -19.757812 20.0625 -19.257812 19.625 -18.75 C 19.1875 -18.238281 18.765625 -17.742188 18.359375 -17.265625 C 17.703125 -16.460938 17 -15.6875 16.25 -14.9375 C 16.070312 -14.738281 15.910156 -14.546875 15.765625 -14.359375 C 15.628906 -14.179688 15.472656 -14.007812 15.296875 -13.84375 C 15.222656 -13.75 15.15625 -13.660156 15.09375 -13.578125 C 15.039062 -13.492188 14.976562 -13.425781 14.90625 -13.375 L 14.75 -13.15625 C 14.488281 -12.863281 14.226562 -12.578125 13.96875 -12.296875 C 13.71875 -12.023438 13.457031 -11.765625 13.1875 -11.515625 L 12.46875 -10.828125 C 12.414062 -10.773438 12.367188 -10.738281 12.328125 -10.71875 C 12.296875 -10.695312 12.269531 -10.660156 12.25 -10.609375 L 12.25 -10.578125 C 12.25 -10.523438 12.257812 -10.5 12.28125 -10.5 L 12.328125 -10.4375 L 12.9375 -9.40625 C 13.03125 -9.257812 13.117188 -9.117188 13.203125 -8.984375 C 13.296875 -8.859375 13.378906 -8.75 13.453125 -8.65625 L 13.515625 -8.4375 C 13.691406 -8.144531 13.914062 -7.757812 14.1875 -7.28125 C 14.46875 -6.8125 14.679688 -6.46875 14.828125 -6.25 C 14.953125 -6.101562 15.050781 -5.953125 15.125 -5.796875 C 15.195312 -5.640625 15.28125 -5.476562 15.375 -5.3125 C 15.59375 -4.800781 15.820312 -4.390625 16.0625 -4.078125 C 16.332031 -3.734375 16.597656 -3.398438 16.859375 -3.078125 C 17.128906 -2.765625 17.492188 -2.453125 17.953125 -2.140625 C 18.191406 -1.992188 18.453125 -1.863281 18.734375 -1.75 C 19.015625 -1.644531 19.335938 -1.570312 19.703125 -1.53125 C 19.742188 -1.53125 19.828125 -1.519531 19.953125 -1.5 C 20.078125 -1.488281 20.160156 -1.484375 20.203125 -1.484375 C 20.492188 -1.484375 20.8125 -1.570312 21.15625 -1.75 C 21.269531 -1.789062 21.390625 -1.859375 21.515625 -1.953125 C 21.640625 -2.054688 21.832031 -2.238281 22.09375 -2.5 C 22.238281 -2.644531 22.363281 -2.78125 22.46875 -2.90625 C 22.582031 -3.03125 22.703125 -3.175781 22.828125 -3.34375 C 23.210938 -3.894531 23.515625 -4.378906 23.734375 -4.796875 C 23.859375 -5.015625 23.953125 -5.15625 24.015625 -5.21875 C 24.085938 -5.28125 24.210938 -5.285156 24.390625 -5.234375 C 24.578125 -5.160156 24.671875 -5.050781 24.671875 -4.90625 C 24.671875 -4.832031 24.648438 -4.722656 24.609375 -4.578125 C 24.554688 -4.503906 24.503906 -4.410156 24.453125 -4.296875 C 24.410156 -4.191406 24.351562 -4.082031 24.28125 -3.96875 C 24.15625 -3.75 24.03125 -3.519531 23.90625 -3.28125 C 23.789062 -3.050781 23.625 -2.804688 23.40625 -2.546875 C 23.164062 -2.234375 22.988281 -2.007812 22.875 -1.875 C 22.769531 -1.738281 22.65625 -1.609375 22.53125 -1.484375 L 22.171875 -1.125 C 21.953125 -0.90625 21.75 -0.753906 21.5625 -0.671875 C 21.382812 -0.585938 21.175781 -0.507812 20.9375 -0.4375 C 20.738281 -0.382812 20.535156 -0.347656 20.328125 -0.328125 C 20.128906 -0.304688 19.96875 -0.296875 19.84375 -0.296875 Z M 19.84375 -0.296875 " /></g></g></g>
<g xmlns="http://www.w3.org/2000/svg" fill="#294a91" fill-opacity="1"><g transform="translate(180.825383, 285.60751)"><g><path d="M 3.703125 -12.796875 C 3.484375 -12.796875 3.300781 -12.875 3.15625 -13.03125 C 3.007812 -13.1875 2.9375 -13.363281 2.9375 -13.5625 C 2.9375 -13.632812 2.941406 -13.695312 2.953125 -13.75 C 2.972656 -13.8125 2.984375 -13.878906 2.984375 -13.953125 C 3.003906 -14.097656 3.050781 -14.207031 3.125 -14.28125 C 3.125 -14.28125 3.128906 -14.289062 3.140625 -14.3125 C 3.148438 -14.34375 3.171875 -14.378906 3.203125 -14.421875 C 3.316406 -14.566406 3.5 -14.640625 3.75 -14.640625 C 3.988281 -14.640625 4.191406 -14.566406 4.359375 -14.421875 C 4.523438 -14.234375 4.609375 -14.03125 4.609375 -13.8125 C 4.609375 -13.570312 4.523438 -13.34375 4.359375 -13.125 C 4.191406 -12.90625 3.972656 -12.796875 3.703125 -12.796875 Z M 4.578125 -1.53125 C 4.703125 -1.601562 4.816406 -1.6875 4.921875 -1.78125 C 5.035156 -1.875 5.222656 -2.054688 5.484375 -2.328125 L 6.28125 -3.34375 C 6.675781 -3.894531 6.984375 -4.378906 7.203125 -4.796875 C 7.367188 -5.109375 7.523438 -5.265625 7.671875 -5.265625 C 7.765625 -5.265625 7.820312 -5.253906 7.84375 -5.234375 C 8.039062 -5.160156 8.140625 -5.050781 8.140625 -4.90625 C 8.140625 -4.832031 8.113281 -4.722656 8.0625 -4.578125 L 7.734375 -3.96875 C 7.617188 -3.75 7.492188 -3.53125 7.359375 -3.3125 C 7.222656 -3.09375 7.046875 -2.847656 6.828125 -2.578125 C 6.585938 -2.265625 6.40625 -2.015625 6.28125 -1.828125 C 6.164062 -1.648438 6.046875 -1.5 5.921875 -1.375 L 5.5625 -1.015625 C 5.289062 -0.753906 5.0625 -0.5625 4.875 -0.4375 C 4.695312 -0.3125 4.515625 -0.203125 4.328125 -0.109375 C 4.085938 -0.0351562 3.867188 0 3.671875 0 C 3.617188 0 3.5625 -0.00390625 3.5 -0.015625 C 3.445312 -0.0234375 3.394531 -0.03125 3.34375 -0.03125 C 2.957031 -0.101562 2.648438 -0.203125 2.421875 -0.328125 C 2.191406 -0.453125 1.976562 -0.707031 1.78125 -1.09375 C 1.65625 -1.238281 1.566406 -1.410156 1.515625 -1.609375 C 1.472656 -1.816406 1.425781 -2.007812 1.375 -2.1875 C 1.351562 -2.332031 1.335938 -2.46875 1.328125 -2.59375 C 1.316406 -2.726562 1.3125 -2.859375 1.3125 -2.984375 C 1.3125 -3.171875 1.316406 -3.335938 1.328125 -3.484375 C 1.335938 -3.628906 1.351562 -3.765625 1.375 -3.890625 L 1.375 -4.078125 C 1.375 -4.316406 1.410156 -4.628906 1.484375 -5.015625 C 1.554688 -5.398438 1.617188 -5.644531 1.671875 -5.75 L 1.671875 -5.78125 C 1.671875 -5.820312 1.660156 -5.84375 1.640625 -5.84375 C 1.640625 -5.84375 1.625 -5.832031 1.59375 -5.8125 C 1.570312 -5.769531 1.554688 -5.738281 1.546875 -5.71875 C 1.535156 -5.707031 1.515625 -5.679688 1.484375 -5.640625 C 1.460938 -5.609375 1.453125 -5.570312 1.453125 -5.53125 C 1.328125 -5.3125 1.21875 -5.09375 1.125 -4.875 C 1.03125 -4.65625 0.945312 -4.484375 0.875 -4.359375 C 0.75 -4.171875 0.628906 -4.078125 0.515625 -4.078125 C 0.390625 -4.078125 0.300781 -4.085938 0.25 -4.109375 C 0.0625 -4.179688 -0.03125 -4.300781 -0.03125 -4.46875 C -0.03125 -4.46875 -0.0078125 -4.539062 0.03125 -4.6875 C 0.0820312 -4.738281 0.128906 -4.816406 0.171875 -4.921875 C 0.222656 -5.035156 0.273438 -5.128906 0.328125 -5.203125 C 0.523438 -5.585938 0.675781 -5.894531 0.78125 -6.125 C 0.882812 -6.351562 1.035156 -6.6875 1.234375 -7.125 C 1.304688 -7.34375 1.378906 -7.53125 1.453125 -7.6875 C 1.523438 -7.84375 1.625 -8.054688 1.75 -8.328125 C 1.84375 -8.640625 1.910156 -8.875 1.953125 -9.03125 C 2.003906 -9.1875 2.066406 -9.4375 2.140625 -9.78125 C 2.242188 -10 2.296875 -10.144531 2.296875 -10.21875 L 2.296875 -10.25 C 2.335938 -10.320312 2.363281 -10.390625 2.375 -10.453125 C 2.394531 -10.515625 2.425781 -10.566406 2.46875 -10.609375 C 2.59375 -10.753906 2.710938 -10.828125 2.828125 -10.828125 C 2.898438 -10.828125 2.988281 -10.800781 3.09375 -10.75 C 3.1875 -10.707031 3.269531 -10.679688 3.34375 -10.671875 C 3.414062 -10.660156 3.476562 -10.628906 3.53125 -10.578125 C 3.625 -10.503906 3.671875 -10.40625 3.671875 -10.28125 C 3.671875 -10.257812 3.664062 -10.234375 3.65625 -10.203125 C 3.644531 -10.179688 3.640625 -10.160156 3.640625 -10.140625 L 3.3125 -8.875 C 3.3125 -8.84375 3.265625 -8.640625 3.171875 -8.265625 C 3.085938 -7.890625 2.984375 -7.4375 2.859375 -6.90625 C 2.742188 -6.375 2.644531 -5.816406 2.5625 -5.234375 C 2.476562 -4.648438 2.4375 -4.117188 2.4375 -3.640625 L 2.4375 -3.5625 C 2.4375 -3.320312 2.453125 -3.015625 2.484375 -2.640625 C 2.523438 -2.265625 2.65625 -1.90625 2.875 -1.5625 C 2.988281 -1.394531 3.128906 -1.289062 3.296875 -1.25 C 3.472656 -1.21875 3.597656 -1.203125 3.671875 -1.203125 C 3.796875 -1.203125 3.921875 -1.21875 4.046875 -1.25 C 4.179688 -1.289062 4.359375 -1.382812 4.578125 -1.53125 Z M 4.578125 -1.53125 " /></g></g></g>
<g xmlns="http://www.w3.org/2000/svg" fill="#294a91" fill-opacity="1"><g transform="translate(188.89064, 285.60751)"><g><path d="M 3.234375 -9.703125 L 3.15625 -8.9375 C 3.132812 -8.75 3.101562 -8.5625 3.0625 -8.375 C 3.03125 -8.195312 3.003906 -8.046875 2.984375 -7.921875 L 2.90625 -7.484375 C 2.851562 -7.078125 2.789062 -6.617188 2.71875 -6.109375 C 2.644531 -5.597656 2.5625 -5.113281 2.46875 -4.65625 L 2.25 -3.046875 C 2.207031 -2.640625 2.164062 -2.222656 2.125 -1.796875 C 2.09375 -1.367188 2.050781 -0.953125 2 -0.546875 C 2.019531 0.128906 2.003906 0.71875 1.953125 1.21875 C 1.910156 1.71875 1.867188 2.265625 1.828125 2.859375 C 1.796875 3.453125 1.78125 4.242188 1.78125 5.234375 C 1.78125 6.421875 1.851562 7.429688 2 8.265625 C 2.144531 9.097656 2.410156 9.515625 2.796875 9.515625 C 2.921875 9.515625 3.113281 9.414062 3.375 9.21875 C 3.644531 9.03125 3.78125 8.898438 3.78125 8.828125 C 4.1875 8.273438 4.441406 7.59375 4.546875 6.78125 C 4.660156 5.96875 4.71875 5.160156 4.71875 4.359375 C 4.71875 3.660156 4.65625 3.054688 4.53125 2.546875 C 4.414062 2.035156 4.238281 1.535156 4 1.046875 C 3.613281 0.222656 3.242188 -0.394531 2.890625 -0.8125 C 2.535156 -1.238281 2.359375 -1.535156 2.359375 -1.703125 C 2.359375 -1.878906 2.441406 -2.03125 2.609375 -2.15625 C 2.785156 -2.289062 2.984375 -2.359375 3.203125 -2.359375 C 3.316406 -2.359375 3.476562 -2.265625 3.6875 -2.078125 C 3.894531 -1.898438 4.179688 -1.8125 4.546875 -1.8125 C 4.878906 -1.8125 5.128906 -1.820312 5.296875 -1.84375 C 5.472656 -1.875 5.65625 -1.953125 5.84375 -2.078125 C 5.96875 -2.148438 6.097656 -2.226562 6.234375 -2.3125 C 6.367188 -2.394531 6.492188 -2.492188 6.609375 -2.609375 L 7.3125 -3.375 L 7.5625 -3.703125 C 7.675781 -3.898438 7.78125 -4.085938 7.875 -4.265625 C 7.976562 -4.453125 8.09375 -4.640625 8.21875 -4.828125 C 8.40625 -5.191406 8.625 -5.328125 8.875 -5.234375 C 9.0625 -5.160156 9.15625 -5.050781 9.15625 -4.90625 C 9.15625 -4.8125 9.144531 -4.726562 9.125 -4.65625 L 8.28125 -3.234375 C 8.113281 -2.960938 7.957031 -2.71875 7.8125 -2.5 C 7.664062 -2.289062 7.5 -2.097656 7.3125 -1.921875 C 7.164062 -1.804688 7.019531 -1.675781 6.875 -1.53125 C 6.726562 -1.382812 6.566406 -1.257812 6.390625 -1.15625 C 6.023438 -0.9375 5.648438 -0.796875 5.265625 -0.734375 C 5.097656 -0.679688 4.957031 -0.65625 4.84375 -0.65625 C 4.738281 -0.65625 4.585938 -0.664062 4.390625 -0.6875 C 4.710938 -0.226562 5.039062 0.488281 5.375 1.46875 C 5.71875 2.445312 5.890625 3.617188 5.890625 4.984375 C 5.890625 5.316406 5.867188 5.660156 5.828125 6.015625 C 5.796875 6.367188 5.78125 6.640625 5.78125 6.828125 C 5.632812 8.015625 5.238281 8.953125 4.59375 9.640625 C 3.957031 10.335938 3.320312 10.6875 2.6875 10.6875 C 2.632812 10.6875 2.582031 10.679688 2.53125 10.671875 C 2.488281 10.660156 2.445312 10.65625 2.40625 10.65625 C 1.570312 10.363281 1.054688 9.800781 0.859375 8.96875 C 0.671875 8.144531 0.578125 7.101562 0.578125 5.84375 C 0.578125 5.195312 0.59375 4.5625 0.625 3.9375 C 0.664062 3.320312 0.6875 2.988281 0.6875 2.9375 L 0.6875 2.90625 C 0.664062 2.832031 0.65625 2.648438 0.65625 2.359375 C 0.65625 2.066406 0.664062 1.882812 0.6875 1.8125 L 0.734375 1.484375 C 0.734375 1.367188 0.738281 1.242188 0.75 1.109375 C 0.757812 0.972656 0.765625 0.847656 0.765625 0.734375 L 0.765625 0.65625 C 0.835938 -0.550781 0.925781 -1.644531 1.03125 -2.625 C 1.144531 -3.613281 1.257812 -4.492188 1.375 -5.265625 L 1.59375 -6.546875 L 1.75 -7.484375 L 1.8125 -8 L 1.96875 -8.609375 C 2.007812 -8.710938 2.035156 -8.847656 2.046875 -9.015625 C 2.066406 -9.179688 2.085938 -9.328125 2.109375 -9.453125 C 2.128906 -9.671875 2.144531 -9.894531 2.15625 -10.125 C 2.175781 -10.351562 2.207031 -10.578125 2.25 -10.796875 C 2.132812 -10.765625 2.023438 -10.75 1.921875 -10.75 C 1.828125 -10.75 1.71875 -10.75 1.59375 -10.75 C 1.476562 -10.75 1.347656 -10.75 1.203125 -10.75 C 1.054688 -10.75 0.898438 -10.773438 0.734375 -10.828125 L 0.515625 -10.859375 C 0.296875 -10.910156 0.132812 -10.953125 0.03125 -10.984375 C -0.0625 -11.023438 -0.207031 -11.109375 -0.40625 -11.234375 C -0.519531 -11.304688 -0.65625 -11.4375 -0.8125 -11.625 C -0.96875 -11.820312 -1.097656 -11.96875 -1.203125 -12.0625 C -1.460938 -12.332031 -1.660156 -12.726562 -1.796875 -13.25 C -1.929688 -13.769531 -2 -14.210938 -2 -14.578125 C -2 -14.648438 -1.992188 -14.75 -1.984375 -14.875 C -1.972656 -15.007812 -1.90625 -15.128906 -1.78125 -15.234375 C -1.707031 -15.304688 -1.570312 -15.34375 -1.375 -15.34375 C -1.332031 -15.34375 -1.296875 -15.328125 -1.265625 -15.296875 C -1.242188 -15.273438 -1.222656 -15.265625 -1.203125 -15.265625 C -1.128906 -15.210938 -1.09375 -15.144531 -1.09375 -15.0625 C -1.09375 -14.976562 -1.09375 -14.875 -1.09375 -14.75 L -1.09375 -14.6875 C -1.09375 -14.394531 -1.078125 -14.164062 -1.046875 -14 C -1.046875 -13.726562 -0.960938 -13.472656 -0.796875 -13.234375 C -0.753906 -13.109375 -0.679688 -12.972656 -0.578125 -12.828125 C -0.484375 -12.679688 -0.335938 -12.515625 -0.140625 -12.328125 C 0.148438 -12.078125 0.421875 -11.914062 0.671875 -11.84375 C 0.921875 -11.769531 1.21875 -11.734375 1.5625 -11.734375 C 1.945312 -11.734375 2.25 -11.785156 2.46875 -11.890625 C 2.46875 -11.960938 2.472656 -12.023438 2.484375 -12.078125 C 2.492188 -12.140625 2.5 -12.207031 2.5 -12.28125 L 2.875 -14.28125 L 3.015625 -15.046875 L 3.375 -16.578125 L 3.640625 -17.546875 C 3.734375 -17.960938 3.84375 -18.375 3.96875 -18.78125 C 4.101562 -19.195312 4.269531 -19.625 4.46875 -20.0625 C 4.8125 -20.8125 5.25 -21.269531 5.78125 -21.4375 C 6.039062 -21.507812 6.28125 -21.546875 6.5 -21.546875 C 6.84375 -21.546875 7.144531 -21.367188 7.40625 -21.015625 C 7.675781 -20.671875 7.820312 -20.171875 7.84375 -19.515625 C 7.84375 -19.078125 7.804688 -18.691406 7.734375 -18.359375 C 7.710938 -18.109375 7.664062 -17.84375 7.59375 -17.5625 C 7.519531 -17.289062 7.4375 -17.007812 7.34375 -16.71875 L 7.046875 -15.953125 C 6.972656 -15.785156 6.898438 -15.625 6.828125 -15.46875 C 6.753906 -15.3125 6.671875 -15.144531 6.578125 -14.96875 L 6.03125 -14.03125 C 5.957031 -13.90625 5.878906 -13.773438 5.796875 -13.640625 C 5.710938 -13.515625 5.625 -13.390625 5.53125 -13.265625 C 5.382812 -13.046875 5.210938 -12.835938 5.015625 -12.640625 C 4.703125 -12.253906 4.316406 -11.894531 3.859375 -11.5625 L 3.484375 -11.296875 L 3.453125 -11.015625 C 3.429688 -10.890625 3.410156 -10.769531 3.390625 -10.65625 C 3.378906 -10.550781 3.375 -10.441406 3.375 -10.328125 Z M 6.796875 -19.15625 C 6.796875 -19.445312 6.789062 -19.644531 6.78125 -19.75 C 6.769531 -19.863281 6.75 -19.96875 6.71875 -20.0625 C 6.625 -20.28125 6.476562 -20.390625 6.28125 -20.390625 C 6.132812 -20.390625 6.015625 -20.335938 5.921875 -20.234375 C 5.828125 -20.140625 5.753906 -20.046875 5.703125 -19.953125 C 5.554688 -19.710938 5.457031 -19.535156 5.40625 -19.421875 C 5.363281 -19.316406 5.316406 -19.210938 5.265625 -19.109375 C 4.929688 -18.191406 4.628906 -17.113281 4.359375 -15.875 L 3.703125 -12.6875 L 3.859375 -12.796875 C 3.929688 -12.867188 4.015625 -12.941406 4.109375 -13.015625 C 4.203125 -13.085938 4.285156 -13.171875 4.359375 -13.265625 L 4.828125 -13.84375 C 4.953125 -13.96875 5.050781 -14.101562 5.125 -14.25 C 5.195312 -14.394531 5.28125 -14.539062 5.375 -14.6875 L 5.8125 -15.484375 C 5.9375 -15.703125 6.039062 -15.910156 6.125 -16.109375 C 6.207031 -16.316406 6.285156 -16.53125 6.359375 -16.75 C 6.378906 -16.800781 6.398438 -16.875 6.421875 -16.96875 C 6.453125 -17.070312 6.476562 -17.179688 6.5 -17.296875 L 6.65625 -17.765625 C 6.695312 -17.960938 6.726562 -18.191406 6.75 -18.453125 C 6.78125 -18.722656 6.796875 -18.957031 6.796875 -19.15625 Z M 6.796875 -19.15625 " /></g></g></g>
<g xmlns="http://www.w3.org/2000/svg" fill="#294a91" fill-opacity="1"><g transform="translate(197.973094, 285.60751)"><g><path d="M 2.03125 -12.46875 C 2.300781 -12.46875 2.546875 -12.503906 2.765625 -12.578125 L 3.15625 -15.453125 C 3.207031 -15.785156 3.269531 -16.113281 3.34375 -16.4375 C 3.414062 -16.769531 3.488281 -17.101562 3.5625 -17.4375 C 3.582031 -17.613281 3.609375 -17.78125 3.640625 -17.9375 C 3.679688 -18.09375 3.71875 -18.242188 3.75 -18.390625 C 3.820312 -18.753906 3.910156 -19.117188 4.015625 -19.484375 C 4.117188 -19.847656 4.257812 -20.195312 4.4375 -20.53125 C 4.550781 -20.820312 4.765625 -21.09375 5.078125 -21.34375 C 5.398438 -21.601562 5.765625 -21.734375 6.171875 -21.734375 C 6.222656 -21.734375 6.269531 -21.726562 6.3125 -21.71875 C 6.363281 -21.707031 6.414062 -21.703125 6.46875 -21.703125 C 7.21875 -21.523438 7.738281 -21.171875 8.03125 -20.640625 C 8.101562 -20.453125 8.144531 -20.273438 8.15625 -20.109375 C 8.164062 -19.953125 8.171875 -19.863281 8.171875 -19.84375 C 8.171875 -19.144531 8.023438 -18.332031 7.734375 -17.40625 L 7.453125 -16.640625 L 7.046875 -15.703125 L 6.546875 -14.75 C 6.441406 -14.601562 6.347656 -14.457031 6.265625 -14.3125 C 6.179688 -14.164062 6.078125 -14.035156 5.953125 -13.921875 C 5.816406 -13.703125 5.648438 -13.492188 5.453125 -13.296875 C 5.253906 -13.078125 5.054688 -12.890625 4.859375 -12.734375 C 4.671875 -12.578125 4.476562 -12.425781 4.28125 -12.28125 L 3.78125 -11.953125 L 3.671875 -10.9375 L 3.265625 -8.828125 C 3.242188 -8.316406 3.171875 -7.785156 3.046875 -7.234375 L 2.90625 -6.5 L 2.90625 -6.4375 C 2.957031 -6.476562 3.003906 -6.535156 3.046875 -6.609375 C 3.097656 -6.679688 3.148438 -6.753906 3.203125 -6.828125 L 3.921875 -7.890625 L 4.171875 -8.28125 C 4.222656 -8.332031 4.363281 -8.503906 4.59375 -8.796875 C 4.820312 -9.085938 5.132812 -9.390625 5.53125 -9.703125 C 5.9375 -10.015625 6.382812 -10.222656 6.875 -10.328125 C 6.988281 -10.347656 7.097656 -10.351562 7.203125 -10.34375 C 7.316406 -10.332031 7.457031 -10.328125 7.625 -10.328125 C 7.800781 -10.328125 7.96875 -10.3125 8.125 -10.28125 C 8.28125 -10.257812 8.441406 -10.1875 8.609375 -10.0625 C 9.097656 -9.65625 9.398438 -9.285156 9.515625 -8.953125 C 9.640625 -8.628906 9.691406 -8.382812 9.671875 -8.21875 L 9.671875 -8.03125 C 9.640625 -7.976562 9.625 -7.878906 9.625 -7.734375 C 9.4375 -6.691406 9.160156 -5.898438 8.796875 -5.359375 C 8.429688 -4.816406 8.238281 -4.53125 8.21875 -4.5 C 8.113281 -4.382812 8.003906 -4.273438 7.890625 -4.171875 C 7.785156 -4.078125 7.6875 -3.984375 7.59375 -3.890625 C 7.5 -3.796875 7.425781 -3.640625 7.375 -3.421875 C 7.375 -3.054688 7.472656 -2.644531 7.671875 -2.1875 L 7.8125 -1.921875 C 7.90625 -1.679688 8.085938 -1.488281 8.359375 -1.34375 C 8.503906 -1.25 8.648438 -1.1875 8.796875 -1.15625 C 8.941406 -1.132812 9.039062 -1.125 9.09375 -1.125 C 9.207031 -1.125 9.367188 -1.144531 9.578125 -1.1875 C 9.785156 -1.238281 9.984375 -1.328125 10.171875 -1.453125 C 10.296875 -1.523438 10.414062 -1.617188 10.53125 -1.734375 C 10.65625 -1.859375 10.851562 -2.054688 11.125 -2.328125 L 11.921875 -3.34375 C 12.117188 -3.632812 12.285156 -3.890625 12.421875 -4.109375 C 12.566406 -4.328125 12.703125 -4.566406 12.828125 -4.828125 C 13.023438 -5.191406 13.242188 -5.328125 13.484375 -5.234375 C 13.679688 -5.160156 13.78125 -5.050781 13.78125 -4.90625 C 13.78125 -4.8125 13.765625 -4.726562 13.734375 -4.65625 L 13.625 -4.390625 L 13.515625 -4.21875 C 13.328125 -3.875 13.160156 -3.585938 13.015625 -3.359375 C 12.867188 -3.128906 12.6875 -2.878906 12.46875 -2.609375 C 12.226562 -2.273438 12.046875 -2.015625 11.921875 -1.828125 C 11.796875 -1.648438 11.675781 -1.5 11.5625 -1.375 L 11.1875 -1.015625 C 10.613281 -0.410156 9.9375 -0.109375 9.15625 -0.109375 C 9.0625 -0.109375 8.941406 -0.109375 8.796875 -0.109375 C 8.648438 -0.109375 8.515625 -0.132812 8.390625 -0.1875 C 7.929688 -0.332031 7.535156 -0.609375 7.203125 -1.015625 C 7.054688 -1.210938 6.929688 -1.382812 6.828125 -1.53125 C 6.734375 -1.675781 6.660156 -1.820312 6.609375 -1.96875 C 6.566406 -2.15625 6.523438 -2.289062 6.484375 -2.375 C 6.453125 -2.457031 6.421875 -2.523438 6.390625 -2.578125 C 6.367188 -2.648438 6.34375 -2.722656 6.3125 -2.796875 C 6.289062 -2.867188 6.28125 -2.929688 6.28125 -2.984375 C 6.238281 -3.148438 6.15625 -3.207031 6.03125 -3.15625 L 5.84375 -3.125 C 5.800781 -3.101562 5.644531 -3.09375 5.375 -3.09375 C 4.789062 -3.132812 4.394531 -3.269531 4.1875 -3.5 C 3.988281 -3.738281 3.863281 -3.953125 3.8125 -4.140625 C 3.769531 -4.265625 3.769531 -4.421875 3.8125 -4.609375 C 4.050781 -5.503906 4.644531 -5.929688 5.59375 -5.890625 C 6.125 -5.890625 6.570312 -5.644531 6.9375 -5.15625 C 6.988281 -5.113281 7.03125 -5.070312 7.0625 -5.03125 C 7.101562 -5 7.125 -4.984375 7.125 -4.984375 C 7.289062 -5.078125 7.519531 -5.351562 7.8125 -5.8125 L 8 -6.140625 C 8.332031 -6.796875 8.515625 -7.316406 8.546875 -7.703125 C 8.585938 -8.085938 8.570312 -8.378906 8.5 -8.578125 C 8.476562 -8.703125 8.394531 -8.820312 8.25 -8.9375 C 8.195312 -8.988281 8.148438 -9.015625 8.109375 -9.015625 C 7.859375 -9.160156 7.578125 -9.234375 7.265625 -9.234375 C 6.878906 -9.234375 6.519531 -9.101562 6.1875 -8.84375 C 5.863281 -8.59375 5.597656 -8.332031 5.390625 -8.0625 C 5.191406 -7.800781 5.066406 -7.644531 5.015625 -7.59375 L 4.71875 -7.234375 C 4.53125 -6.960938 4.335938 -6.675781 4.140625 -6.375 C 3.953125 -6.070312 3.722656 -5.753906 3.453125 -5.421875 L 3.09375 -4.6875 C 3.0625 -4.613281 3.035156 -4.539062 3.015625 -4.46875 C 2.992188 -4.394531 2.957031 -4.332031 2.90625 -4.28125 C 2.8125 -4.09375 2.726562 -3.898438 2.65625 -3.703125 C 2.582031 -3.515625 2.519531 -3.332031 2.46875 -3.15625 C 2.375 -2.84375 2.300781 -2.484375 2.25 -2.078125 L 2.25 -2 C 2.226562 -1.875 2.210938 -1.75 2.203125 -1.625 C 2.191406 -1.507812 2.160156 -1.390625 2.109375 -1.265625 C 2.054688 -1.097656 2.023438 -0.941406 2.015625 -0.796875 C 2.003906 -0.648438 1.988281 -0.492188 1.96875 -0.328125 C 1.9375 -0.109375 1.789062 0 1.53125 0 L 1.34375 0 C 1.144531 -0.0703125 0.988281 -0.21875 0.875 -0.4375 L 0.875 -0.46875 C 0.894531 -0.644531 0.914062 -0.789062 0.9375 -0.90625 C 0.96875 -1.03125 0.992188 -1.140625 1.015625 -1.234375 L 1.203125 -2.1875 C 1.296875 -2.789062 1.390625 -3.4375 1.484375 -4.125 C 1.585938 -4.8125 1.675781 -5.414062 1.75 -5.9375 C 1.820312 -6.457031 1.859375 -6.742188 1.859375 -6.796875 L 1.890625 -7.046875 L 1.96875 -7.484375 L 2.078125 -8 C 2.117188 -8.164062 2.148438 -8.335938 2.171875 -8.515625 C 2.203125 -8.703125 2.226562 -8.894531 2.25 -9.09375 C 2.25 -9.28125 2.257812 -9.460938 2.28125 -9.640625 C 2.3125 -9.828125 2.335938 -9.992188 2.359375 -10.140625 L 2.4375 -10.609375 C 2.457031 -10.753906 2.472656 -10.894531 2.484375 -11.03125 C 2.492188 -11.164062 2.523438 -11.304688 2.578125 -11.453125 C 2.484375 -11.421875 2.394531 -11.40625 2.3125 -11.40625 C 2.226562 -11.40625 2.148438 -11.40625 2.078125 -11.40625 L 1.8125 -11.40625 C 1.570312 -11.4375 1.378906 -11.46875 1.234375 -11.5 C 1.085938 -11.539062 0.921875 -11.597656 0.734375 -11.671875 C 0.554688 -11.710938 0.375 -11.8125 0.1875 -11.96875 C 0.0078125 -12.132812 -0.125 -12.265625 -0.21875 -12.359375 C -0.269531 -12.398438 -0.367188 -12.523438 -0.515625 -12.734375 C -0.660156 -12.941406 -0.742188 -13.070312 -0.765625 -13.125 L -1.015625 -13.5625 C -1.109375 -13.707031 -1.191406 -13.863281 -1.265625 -14.03125 C -1.335938 -14.195312 -1.398438 -14.414062 -1.453125 -14.6875 C -1.453125 -14.757812 -1.46875 -14.921875 -1.5 -15.171875 C -1.539062 -15.429688 -1.5 -15.617188 -1.375 -15.734375 C -1.28125 -15.828125 -1.160156 -15.875 -1.015625 -15.875 C -0.960938 -15.90625 -0.914062 -15.90625 -0.875 -15.875 C -0.84375 -15.851562 -0.816406 -15.84375 -0.796875 -15.84375 C -0.703125 -15.789062 -0.65625 -15.726562 -0.65625 -15.65625 C -0.65625 -15.59375 -0.644531 -15.5 -0.625 -15.375 L -0.546875 -14.9375 C -0.546875 -14.769531 -0.53125 -14.648438 -0.5 -14.578125 C -0.476562 -14.503906 -0.457031 -14.40625 -0.4375 -14.28125 C -0.3125 -13.945312 -0.175781 -13.71875 -0.03125 -13.59375 C 0.0390625 -13.46875 0.132812 -13.335938 0.25 -13.203125 C 0.375 -13.078125 0.554688 -12.925781 0.796875 -12.75 C 1.085938 -12.582031 1.320312 -12.492188 1.5 -12.484375 C 1.6875 -12.472656 1.863281 -12.46875 2.03125 -12.46875 Z M 4.171875 -15.125 C 4.128906 -14.757812 4.085938 -14.425781 4.046875 -14.125 C 4.015625 -13.820312 3.988281 -13.535156 3.96875 -13.265625 C 4.082031 -13.359375 4.210938 -13.457031 4.359375 -13.5625 C 4.503906 -13.675781 4.640625 -13.804688 4.765625 -13.953125 C 4.929688 -14.117188 5.078125 -14.3125 5.203125 -14.53125 C 5.347656 -14.726562 5.457031 -14.894531 5.53125 -15.03125 C 5.601562 -15.164062 5.734375 -15.398438 5.921875 -15.734375 L 6.140625 -16.140625 C 6.234375 -16.304688 6.320312 -16.484375 6.40625 -16.671875 C 6.5 -16.867188 6.582031 -17.09375 6.65625 -17.34375 L 6.828125 -17.875 L 6.90625 -18.3125 C 7 -18.675781 7.046875 -19.066406 7.046875 -19.484375 C 7.046875 -19.523438 7.046875 -19.59375 7.046875 -19.6875 C 7.046875 -19.789062 7.035156 -19.90625 7.015625 -20.03125 C 6.960938 -20.25 6.863281 -20.40625 6.71875 -20.5 C 6.570312 -20.59375 6.425781 -20.640625 6.28125 -20.640625 C 6.164062 -20.640625 6.054688 -20.617188 5.953125 -20.578125 C 5.765625 -20.472656 5.570312 -20.265625 5.375 -19.953125 C 5.257812 -19.710938 5.164062 -19.457031 5.09375 -19.1875 C 5.019531 -18.925781 4.929688 -18.625 4.828125 -18.28125 C 4.679688 -17.65625 4.550781 -17.09375 4.4375 -16.59375 C 4.332031 -16.09375 4.242188 -15.601562 4.171875 -15.125 Z M 6.03125 -4.078125 C 6.25 -4.191406 6.285156 -4.367188 6.140625 -4.609375 C 6.085938 -4.710938 6.007812 -4.8125 5.90625 -4.90625 C 5.800781 -5 5.695312 -5.046875 5.59375 -5.046875 C 5.425781 -5.046875 5.234375 -5 5.015625 -4.90625 C 4.941406 -4.851562 4.878906 -4.75 4.828125 -4.59375 C 4.785156 -4.4375 4.785156 -4.296875 4.828125 -4.171875 C 4.859375 -4.109375 4.953125 -4.046875 5.109375 -3.984375 C 5.265625 -3.921875 5.378906 -3.890625 5.453125 -3.890625 C 5.546875 -3.867188 5.640625 -3.878906 5.734375 -3.921875 C 5.835938 -3.972656 5.9375 -4.023438 6.03125 -4.078125 Z M 6.03125 -4.078125 " /></g></g></g>
<g xmlns="http://www.w3.org/2000/svg" fill="#294a91" fill-opacity="1"><g transform="translate(211.669222, 285.60751)"><g><path d="M 3.703125 -12.796875 C 3.484375 -12.796875 3.300781 -12.875 3.15625 -13.03125 C 3.007812 -13.1875 2.9375 -13.363281 2.9375 -13.5625 C 2.9375 -13.632812 2.941406 -13.695312 2.953125 -13.75 C 2.972656 -13.8125 2.984375 -13.878906 2.984375 -13.953125 C 3.003906 -14.097656 3.050781 -14.207031 3.125 -14.28125 C 3.125 -14.28125 3.128906 -14.289062 3.140625 -14.3125 C 3.148438 -14.34375 3.171875 -14.378906 3.203125 -14.421875 C 3.316406 -14.566406 3.5 -14.640625 3.75 -14.640625 C 3.988281 -14.640625 4.191406 -14.566406 4.359375 -14.421875 C 4.523438 -14.234375 4.609375 -14.03125 4.609375 -13.8125 C 4.609375 -13.570312 4.523438 -13.34375 4.359375 -13.125 C 4.191406 -12.90625 3.972656 -12.796875 3.703125 -12.796875 Z M 4.578125 -1.53125 C 4.703125 -1.601562 4.816406 -1.6875 4.921875 -1.78125 C 5.035156 -1.875 5.222656 -2.054688 5.484375 -2.328125 L 6.28125 -3.34375 C 6.675781 -3.894531 6.984375 -4.378906 7.203125 -4.796875 C 7.367188 -5.109375 7.523438 -5.265625 7.671875 -5.265625 C 7.765625 -5.265625 7.820312 -5.253906 7.84375 -5.234375 C 8.039062 -5.160156 8.140625 -5.050781 8.140625 -4.90625 C 8.140625 -4.832031 8.113281 -4.722656 8.0625 -4.578125 L 7.734375 -3.96875 C 7.617188 -3.75 7.492188 -3.53125 7.359375 -3.3125 C 7.222656 -3.09375 7.046875 -2.847656 6.828125 -2.578125 C 6.585938 -2.265625 6.40625 -2.015625 6.28125 -1.828125 C 6.164062 -1.648438 6.046875 -1.5 5.921875 -1.375 L 5.5625 -1.015625 C 5.289062 -0.753906 5.0625 -0.5625 4.875 -0.4375 C 4.695312 -0.3125 4.515625 -0.203125 4.328125 -0.109375 C 4.085938 -0.0351562 3.867188 0 3.671875 0 C 3.617188 0 3.5625 -0.00390625 3.5 -0.015625 C 3.445312 -0.0234375 3.394531 -0.03125 3.34375 -0.03125 C 2.957031 -0.101562 2.648438 -0.203125 2.421875 -0.328125 C 2.191406 -0.453125 1.976562 -0.707031 1.78125 -1.09375 C 1.65625 -1.238281 1.566406 -1.410156 1.515625 -1.609375 C 1.472656 -1.816406 1.425781 -2.007812 1.375 -2.1875 C 1.351562 -2.332031 1.335938 -2.46875 1.328125 -2.59375 C 1.316406 -2.726562 1.3125 -2.859375 1.3125 -2.984375 C 1.3125 -3.171875 1.316406 -3.335938 1.328125 -3.484375 C 1.335938 -3.628906 1.351562 -3.765625 1.375 -3.890625 L 1.375 -4.078125 C 1.375 -4.316406 1.410156 -4.628906 1.484375 -5.015625 C 1.554688 -5.398438 1.617188 -5.644531 1.671875 -5.75 L 1.671875 -5.78125 C 1.671875 -5.820312 1.660156 -5.84375 1.640625 -5.84375 C 1.640625 -5.84375 1.625 -5.832031 1.59375 -5.8125 C 1.570312 -5.769531 1.554688 -5.738281 1.546875 -5.71875 C 1.535156 -5.707031 1.515625 -5.679688 1.484375 -5.640625 C 1.460938 -5.609375 1.453125 -5.570312 1.453125 -5.53125 C 1.328125 -5.3125 1.21875 -5.09375 1.125 -4.875 C 1.03125 -4.65625 0.945312 -4.484375 0.875 -4.359375 C 0.75 -4.171875 0.628906 -4.078125 0.515625 -4.078125 C 0.390625 -4.078125 0.300781 -4.085938 0.25 -4.109375 C 0.0625 -4.179688 -0.03125 -4.300781 -0.03125 -4.46875 C -0.03125 -4.46875 -0.0078125 -4.539062 0.03125 -4.6875 C 0.0820312 -4.738281 0.128906 -4.816406 0.171875 -4.921875 C 0.222656 -5.035156 0.273438 -5.128906 0.328125 -5.203125 C 0.523438 -5.585938 0.675781 -5.894531 0.78125 -6.125 C 0.882812 -6.351562 1.035156 -6.6875 1.234375 -7.125 C 1.304688 -7.34375 1.378906 -7.53125 1.453125 -7.6875 C 1.523438 -7.84375 1.625 -8.054688 1.75 -8.328125 C 1.84375 -8.640625 1.910156 -8.875 1.953125 -9.03125 C 2.003906 -9.1875 2.066406 -9.4375 2.140625 -9.78125 C 2.242188 -10 2.296875 -10.144531 2.296875 -10.21875 L 2.296875 -10.25 C 2.335938 -10.320312 2.363281 -10.390625 2.375 -10.453125 C 2.394531 -10.515625 2.425781 -10.566406 2.46875 -10.609375 C 2.59375 -10.753906 2.710938 -10.828125 2.828125 -10.828125 C 2.898438 -10.828125 2.988281 -10.800781 3.09375 -10.75 C 3.1875 -10.707031 3.269531 -10.679688 3.34375 -10.671875 C 3.414062 -10.660156 3.476562 -10.628906 3.53125 -10.578125 C 3.625 -10.503906 3.671875 -10.40625 3.671875 -10.28125 C 3.671875 -10.257812 3.664062 -10.234375 3.65625 -10.203125 C 3.644531 -10.179688 3.640625 -10.160156 3.640625 -10.140625 L 3.3125 -8.875 C 3.3125 -8.84375 3.265625 -8.640625 3.171875 -8.265625 C 3.085938 -7.890625 2.984375 -7.4375 2.859375 -6.90625 C 2.742188 -6.375 2.644531 -5.816406 2.5625 -5.234375 C 2.476562 -4.648438 2.4375 -4.117188 2.4375 -3.640625 L 2.4375 -3.5625 C 2.4375 -3.320312 2.453125 -3.015625 2.484375 -2.640625 C 2.523438 -2.265625 2.65625 -1.90625 2.875 -1.5625 C 2.988281 -1.394531 3.128906 -1.289062 3.296875 -1.25 C 3.472656 -1.21875 3.597656 -1.203125 3.671875 -1.203125 C 3.796875 -1.203125 3.921875 -1.21875 4.046875 -1.25 C 4.179688 -1.289062 4.359375 -1.382812 4.578125 -1.53125 Z M 4.578125 -1.53125 " /></g></g></g>
</g>
<g id="tagline">
<g xmlns="http://www.w3.org/2000/svg" transform="matrix(1, 0, 0, 1, 119, 293)"><g clip-path="url(#2c9135829d)"><g fill="#294a91" fill-opacity="1"><g transform="translate(1.383977, 12.232888)"><g><path d="M 1.8125 -0.875 L 4.859375 -0.875 L 4.859375 0 L 0.9375 0 L 0.9375 -8.515625 L 1.8125 -8.515625 Z M 1.8125 -0.875 " /></g></g></g><g fill="#294a91" fill-opacity="1"><g transform="translate(7.7484, 12.232888)"><g><path d="M 1.828125 -7.421875 C 1.941406 -7.304688 2 -7.175781 2 -7.03125 C 2 -6.875 1.941406 -6.738281 1.828125 -6.625 C 1.722656 -6.519531 1.59375 -6.46875 1.4375 -6.46875 C 1.28125 -6.46875 1.148438 -6.519531 1.046875 -6.625 C 0.929688 -6.738281 0.875 -6.875 0.875 -7.03125 C 0.875 -7.175781 0.929688 -7.304688 1.046875 -7.421875 C 1.148438 -7.523438 1.28125 -7.578125 1.4375 -7.578125 C 1.59375 -7.578125 1.722656 -7.523438 1.828125 -7.421875 Z M 1.875 0 L 1 0 L 1 -5.515625 L 1.875 -5.515625 Z M 1.875 0 " /></g></g></g><g fill="#294a91" fill-opacity="1"><g transform="translate(11.870412, 12.232888)"><g><path d="M 0.25 -4.703125 L 0.25 -5.515625 L 1.625 -5.515625 L 1.625 -7.65625 L 2.5 -7.65625 L 2.5 -5.515625 L 3.875 -5.515625 L 3.875 -4.703125 L 2.5 -4.703125 L 2.5 0 L 1.625 0 L 1.625 -4.703125 Z M 0.25 -4.703125 " /></g></g></g><g fill="#294a91" fill-opacity="1"><g transform="translate(17.245168, 12.232888)"><g><path d="M 6.328125 -2.875 L 6.328125 -2.421875 L 1.484375 -2.421875 C 1.566406 -1.941406 1.796875 -1.550781 2.171875 -1.25 C 2.554688 -0.945312 2.984375 -0.796875 3.453125 -0.796875 C 3.765625 -0.796875 4.066406 -0.867188 4.359375 -1.015625 C 4.640625 -1.160156 4.878906 -1.359375 5.078125 -1.609375 L 6.078125 -1.609375 C 5.847656 -1.085938 5.5 -0.675781 5.03125 -0.375 C 4.550781 -0.0625 4.066406 0.09375 3.578125 0.09375 C 3.085938 0.09375 2.671875 0.015625 2.328125 -0.140625 C 1.972656 -0.285156 1.671875 -0.488281 1.421875 -0.75 C 0.847656 -1.300781 0.5625 -1.976562 0.5625 -2.78125 C 0.5625 -3.570312 0.847656 -4.253906 1.421875 -4.828125 C 1.972656 -5.390625 2.648438 -5.671875 3.453125 -5.671875 C 4.210938 -5.671875 4.882812 -5.394531 5.46875 -4.84375 C 6.039062 -4.289062 6.328125 -3.632812 6.328125 -2.875 Z M 5.40625 -3.171875 C 5.300781 -3.640625 5.066406 -4.023438 4.703125 -4.328125 C 4.328125 -4.628906 3.910156 -4.78125 3.453125 -4.78125 C 2.734375 -4.78125 2.164062 -4.460938 1.75 -3.828125 C 1.625 -3.617188 1.535156 -3.398438 1.484375 -3.171875 Z M 5.40625 -3.171875 " /></g></g></g><g fill="#294a91" fill-opacity="1"><g transform="translate(25.325848, 12.232888)"><g><path d="M 3.765625 -4.375 C 3.566406 -4.5625 3.351562 -4.65625 3.125 -4.65625 C 2.894531 -4.65625 2.703125 -4.59375 2.546875 -4.46875 C 2.378906 -4.332031 2.238281 -4.171875 2.125 -3.984375 C 1.914062 -3.617188 1.8125 -3.207031 1.8125 -2.75 L 1.8125 0 L 0.9375 0 L 0.9375 -5.515625 L 1.8125 -5.515625 L 1.8125 -4.375 L 1.859375 -4.59375 C 2.148438 -5.28125 2.601562 -5.625 3.21875 -5.625 C 3.414062 -5.625 3.597656 -5.585938 3.765625 -5.515625 Z M 3.765625 -4.375 " /></g></g></g><g fill="#294a91" fill-opacity="1"><g transform="translate(30.475117, 12.232888)"><g><path d="M 5.328125 -2.75 C 5.328125 -3.289062 5.144531 -3.757812 4.78125 -4.15625 C 4.394531 -4.5625 3.929688 -4.765625 3.390625 -4.765625 C 2.835938 -4.765625 2.375 -4.5625 2 -4.15625 C 1.625 -3.757812 1.4375 -3.289062 1.4375 -2.75 C 1.4375 -2.21875 1.625 -1.753906 2 -1.359375 C 2.375 -0.953125 2.835938 -0.75 3.390625 -0.75 C 3.929688 -0.75 4.394531 -0.953125 4.78125 -1.359375 C 5.144531 -1.753906 5.328125 -2.21875 5.328125 -2.75 Z M 6.203125 0 L 5.328125 0 L 5.328125 -0.9375 C 5.273438 -0.875 5.222656 -0.8125 5.171875 -0.75 C 4.648438 -0.164062 4.007812 0.125 3.25 0.125 C 2.488281 0.125 1.847656 -0.164062 1.328125 -0.75 C 0.816406 -1.320312 0.5625 -1.988281 0.5625 -2.75 C 0.5625 -3.519531 0.816406 -4.191406 1.328125 -4.765625 C 1.847656 -5.347656 2.488281 -5.640625 3.25 -5.640625 C 4.007812 -5.640625 4.648438 -5.347656 5.171875 -4.765625 C 5.222656 -4.703125 5.273438 -4.640625 5.328125 -4.578125 L 5.328125 -5.515625 L 6.203125 -5.515625 Z M 6.203125 0 " /></g></g></g><g fill="#294a91" fill-opacity="1"><g transform="translate(38.868987, 12.232888)"><g><path d="M 0.25 -4.703125 L 0.25 -5.515625 L 1.625 -5.515625 L 1.625 -7.65625 L 2.5 -7.65625 L 2.5 -5.515625 L 3.875 -5.515625 L 3.875 -4.703125 L 2.5 -4.703125 L 2.5 0 L 1.625 0 L 1.625 -4.703125 Z M 0.25 -4.703125 " /></g></g></g><g fill="#294a91" fill-opacity="1"><g transform="translate(44.243743, 12.232888)"><g><path d="M 4.75 -0.9375 C 4.34375 -0.238281 3.726562 0.109375 2.90625 0.109375 C 2.289062 0.109375 1.804688 -0.09375 1.453125 -0.5 C 1.109375 -0.90625 0.9375 -1.425781 0.9375 -2.0625 L 0.9375 -5.515625 L 1.8125 -5.515625 L 1.8125 -2.0625 C 1.8125 -1.707031 1.894531 -1.40625 2.0625 -1.15625 C 2.226562 -0.894531 2.5 -0.765625 2.875 -0.765625 C 3.550781 -0.765625 4.035156 -0.984375 4.328125 -1.421875 C 4.609375 -1.847656 4.75 -2.441406 4.75 -3.203125 L 4.75 -5.515625 L 5.625 -5.515625 L 5.625 0 L 4.75 0 Z M 4.75 -0.9375 " /></g></g></g><g fill="#294a91" fill-opacity="1"><g transform="translate(51.873448, 12.232888)"><g><path d="M 3.765625 -4.375 C 3.566406 -4.5625 3.351562 -4.65625 3.125 -4.65625 C 2.894531 -4.65625 2.703125 -4.59375 2.546875 -4.46875 C 2.378906 -4.332031 2.238281 -4.171875 2.125 -3.984375 C 1.914062 -3.617188 1.8125 -3.207031 1.8125 -2.75 L 1.8125 0 L 0.9375 0 L 0.9375 -5.515625 L 1.8125 -5.515625 L 1.8125 -4.375 L 1.859375 -4.59375 C 2.148438 -5.28125 2.601562 -5.625 3.21875 -5.625 C 3.414062 -5.625 3.597656 -5.585938 3.765625 -5.515625 Z M 3.765625 -4.375 " /></g></g></g><g fill="#294a91" fill-opacity="1"><g transform="translate(57.022717, 12.232888)"><g><path d="M 5.328125 -2.75 C 5.328125 -3.289062 5.144531 -3.757812 4.78125 -4.15625 C 4.394531 -4.5625 3.929688 -4.765625 3.390625 -4.765625 C 2.835938 -4.765625 2.375 -4.5625 2 -4.15625 C 1.625 -3.757812 1.4375 -3.289062 1.4375 -2.75 C 1.4375 -2.21875 1.625 -1.753906 2 -1.359375 C 2.375 -0.953125 2.835938 -0.75 3.390625 -0.75 C 3.929688 -0.75 4.394531 -0.953125 4.78125 -1.359375 C 5.144531 -1.753906 5.328125 -2.21875 5.328125 -2.75 Z M 6.203125 0 L 5.328125 0 L 5.328125 -0.9375 C 5.273438 -0.875 5.222656 -0.8125 5.171875 -0.75 C 4.648438 -0.164062 4.007812 0.125 3.25 0.125 C 2.488281 0.125 1.847656 -0.164062 1.328125 -0.75 C 0.816406 -1.320312 0.5625 -1.988281 0.5625 -2.75 C 0.5625 -3.519531 0.816406 -4.191406 1.328125 -4.765625 C 1.847656 -5.347656 2.488281 -5.640625 3.25 -5.640625 C 4.007812 -5.640625 4.648438 -5.347656 5.171875 -4.765625 C 5.222656 -4.703125 5.273438 -4.640625 5.328125 -4.578125 L 5.328125 -5.515625 L 6.203125 -5.515625 Z M 6.203125 0 " /></g></g></g><g fill="#294a91" fill-opacity="1"><g transform="translate(65.416586, 12.232888)"><g /></g></g><g fill="#294a91" fill-opacity="1"><g transform="translate(70.052234, 12.232888)"><g><path d="M 1.8125 0 L 0.9375 0 L 0.9375 -8.515625 L 1.8125 -8.515625 Z M 1.8125 0 " /></g></g></g><g fill="#294a91" fill-opacity="1"><g transform="translate(74.061501, 12.232888)"><g><path d="M 4.75 0 L 4.75 -3.453125 C 4.75 -3.804688 4.671875 -4.113281 4.515625 -4.375 C 4.347656 -4.625 4.078125 -4.75 3.703125 -4.75 C 3.328125 -4.75 3.019531 -4.675781 2.78125 -4.53125 C 2.550781 -4.394531 2.363281 -4.210938 2.21875 -3.984375 C 1.945312 -3.566406 1.8125 -3.007812 1.8125 -2.3125 L 1.8125 0 L 0.9375 0 L 0.9375 -5.515625 L 1.8125 -5.515625 L 1.8125 -4.5625 C 2 -4.875 2.234375 -5.128906 2.515625 -5.328125 C 2.816406 -5.523438 3.164062 -5.625 3.5625 -5.625 C 3.945312 -5.625 4.265625 -5.570312 4.515625 -5.46875 C 4.753906 -5.34375 4.957031 -5.1875 5.125 -5 C 5.457031 -4.601562 5.625 -4.085938 5.625 -3.453125 L 5.625 0 Z M 4.75 0 " /></g></g></g><g fill="#294a91" fill-opacity="1"><g transform="translate(81.691205, 12.232888)"><g><path d="M 3.890625 -8.578125 L 3.140625 -8.578125 C 2.847656 -8.578125 2.65625 -8.515625 2.5625 -8.390625 C 2.476562 -8.253906 2.4375 -8.085938 2.4375 -7.890625 L 2.4375 -5.515625 L 3.890625 -5.515625 L 3.890625 -4.703125 L 2.4375 -4.703125 L 2.4375 0 L 1.546875 0 L 1.546875 -4.703125 L 0.4375 -4.703125 L 0.4375 -5.515625 L 1.546875 -5.515625 L 1.546875 -7.640625 C 1.546875 -8.203125 1.679688 -8.640625 1.953125 -8.953125 C 2.210938 -9.253906 2.648438 -9.40625 3.265625 -9.40625 L 3.890625 -9.40625 Z M 3.890625 -8.578125 " /></g></g></g><g fill="#294a91" fill-opacity="1"><g transform="translate(87.216297, 12.232888)"><g><path d="M 5.328125 -2.75 C 5.328125 -3.289062 5.144531 -3.757812 4.78125 -4.15625 C 4.394531 -4.5625 3.929688 -4.765625 3.390625 -4.765625 C 2.835938 -4.765625 2.375 -4.5625 2 -4.15625 C 1.625 -3.757812 1.4375 -3.289062 1.4375 -2.75 C 1.4375 -2.21875 1.625 -1.753906 2 -1.359375 C 2.375 -0.953125 2.835938 -0.75 3.390625 -0.75 C 3.929688 -0.75 4.394531 -0.953125 4.78125 -1.359375 C 5.144531 -1.753906 5.328125 -2.21875 5.328125 -2.75 Z M 6.203125 0 L 5.328125 0 L 5.328125 -0.9375 C 5.273438 -0.875 5.222656 -0.8125 5.171875 -0.75 C 4.648438 -0.164062 4.007812 0.125 3.25 0.125 C 2.488281 0.125 1.847656 -0.164062 1.328125 -0.75 C 0.816406 -1.320312 0.5625 -1.988281 0.5625 -2.75 C 0.5625 -3.519531 0.816406 -4.191406 1.328125 -4.765625 C 1.847656 -5.347656 2.488281 -5.640625 3.25 -5.640625 C 4.007812 -5.640625 4.648438 -5.347656 5.171875 -4.765625 C 5.222656 -4.703125 5.273438 -4.640625 5.328125 -4.578125 L 5.328125 -5.515625 L 6.203125 -5.515625 Z M 6.203125 0 " /></g></g></g><g fill="#294a91" fill-opacity="1"><g transform="translate(95.610166, 12.232888)"><g><path d="M 4.75 0 L 4.75 -3.453125 C 4.75 -3.804688 4.671875 -4.113281 4.515625 -4.375 C 4.347656 -4.625 4.078125 -4.75 3.703125 -4.75 C 3.328125 -4.75 3.019531 -4.675781 2.78125 -4.53125 C 2.550781 -4.394531 2.363281 -4.210938 2.21875 -3.984375 C 1.945312 -3.566406 1.8125 -3.007812 1.8125 -2.3125 L 1.8125 0 L 0.9375 0 L 0.9375 -5.515625 L 1.8125 -5.515625 L 1.8125 -4.5625 C 2 -4.875 2.234375 -5.128906 2.515625 -5.328125 C 2.816406 -5.523438 3.164062 -5.625 3.5625 -5.625 C 3.945312 -5.625 4.265625 -5.570312 4.515625 -5.46875 C 4.753906 -5.34375 4.957031 -5.1875 5.125 -5 C 5.457031 -4.601562 5.625 -4.085938 5.625 -3.453125 L 5.625 0 Z M 4.75 0 " /></g></g></g><g fill="#294a91" fill-opacity="1"><g transform="translate(103.23987, 12.232888)"><g><path d="M 0.25 -4.703125 L 0.25 -5.515625 L 1.625 -5.515625 L 1.625 -7.65625 L 2.5 -7.65625 L 2.5 -5.515625 L 3.875 -5.515625 L 3.875 -4.703125 L 2.5 -4.703125 L 2.5 0 L 1.625 0 L 1.625 -4.703125 Z M 0.25 -4.703125 " /></g></g></g><g fill="#294a91" fill-opacity="1"><g transform="translate(108.614627, 12.232888)"><g><path d="M 1.828125 -7.421875 C 1.941406 -7.304688 2 -7.175781 2 -7.03125 C 2 -6.875 1.941406 -6.738281 1.828125 -6.625 C 1.722656 -6.519531 1.59375 -6.46875 1.4375 -6.46875 C 1.28125 -6.46875 1.148438 -6.519531 1.046875 -6.625 C 0.929688 -6.738281 0.875 -6.875 0.875 -7.03125 C 0.875 -7.175781 0.929688 -7.304688 1.046875 -7.421875 C 1.148438 -7.523438 1.28125 -7.578125 1.4375 -7.578125 C 1.59375 -7.578125 1.722656 -7.523438 1.828125 -7.421875 Z M 1.875 0 L 1 0 L 1 -5.515625 L 1.875 -5.515625 Z M 1.875 0 " /></g></g></g><g fill="#294a91" fill-opacity="1"><g transform="translate(112.736638, 12.232888)"><g><path d="M 1.8125 0 L 0.9375 0 L 0.9375 -9.40625 L 1.8125 -9.40625 Z M 1.8125 0 " /></g></g></g></g></g>
</g>
</svg>